<svg xmlns="http://www.w3.org/2000/svg" viewBox="0 0 400 300">
  <!-- Cielo -->
  <rect width="400" height="200" fill="#87CEEB"/>
  <!-- Sol -->
  <circle cx="350" cy="50" r="30" fill="#FFD700"/>
  <!-- Rayos del sol -->
  <line x1="350" y1="10" x2="350" y2="0" stroke="#FFD700" stroke-width="3"/>
  <line x1="390" y1="50" x2="400" y2="50" stroke="#FFD700" stroke-width="3"/>
  <line x1="350" y1="90" x2="350" y2="100" stroke="#FFD700" stroke-width="3"/>
  <line x1="310" y1="50" x2="300" y2="50" stroke="#FFD700" stroke-width="3"/>
  <line x1="378" y1="22" x2="385" y2="15" stroke="#FFD700" stroke-width="3"/>
  <line x1="378" y1="78" x2="385" y2="85" stroke="#FFD700" stroke-width="3"/>
  <line x1="322" y1="22" x2="315" y2="15" stroke="#FFD700" stroke-width="3"/>
  <line x1="322" y1="78" x2="315" y2="85" stroke="#FFD700" stroke-width="3"/>
  
  <!-- Tierra -->
  <rect y="200" width="400" height="100" fill="#90EE90"/>
  
  <!-- Ãrbol -->
  <rect x="50" y="130" width="20" height="70" fill="#8B4513"/>
  <circle cx="60" cy="110" r="35" fill="#228B22"/>
  
  <!-- Flores -->
  <circle cx="150" cy="180" r="3" fill="#FF1493"/>
  <circle cx="145" cy="175" r="3" fill="#FF1493"/>
  <circle cx="155" cy="175" r="3" fill="#FF1493"/>
  <circle cx="150" cy="170" r="3" fill="#FF1493"/>
  <circle cx="145" cy="185" r="3" fill="#FF1493"/>
  <circle cx="155" cy="185" r="3" fill="#FF1493"/>
  <circle cx="150" cy="190" r="3" fill="#FFFF00"/>
  
  <!-- Nube -->
  <ellipse cx="100" cy="40" rx="30" ry="20" fill="white"/>
  <ellipse cx="75" cy="45" rx="25" ry="18" fill="white"/>
  <ellipse cx="125" cy="45" rx="25" ry="18" fill="white"/>
</svg>
